<svg width="91" height="90" viewBox="0 0 91 90" fill="none" xmlns="http://www.w3.org/2000/svg">
<g clip-path="url(#clip0_142_650)">
<path d="M28.2548 52.5663C12.0977 54.0107 -0.211738 67.5131 0.00276079 83.5562V84.3698C0.00276079 87.476 2.54885 89.9941 5.68956 89.9941C8.83028 89.9941 11.3764 87.476 11.3764 84.3698V83.3313C11.2054 73.4808 18.5556 65.0807 28.4368 63.8337C38.8672 62.8108 48.1614 70.3442 49.1957 80.6601C49.2569 81.2699 49.2878 81.8823 49.2883 82.4952V84.37C49.2883 87.4762 51.8344 89.9943 54.9751 89.9943C58.1158 89.9943 60.6619 87.4762 60.6619 84.37V82.4952C60.6434 65.91 47.034 52.48 30.2647 52.4983C29.594 52.499 28.9237 52.5217 28.2548 52.5663Z" fill="white"/>
<path d="M30.3323 44.999C42.8951 44.999 53.0795 34.9265 53.0795 22.5017C53.0795 10.0769 42.8951 0.0045166 30.3323 0.0045166C17.7694 0.0045166 7.58508 10.0769 7.58508 22.5017C7.5977 34.9216 17.7746 44.9867 30.3323 44.999ZM30.3323 11.2531C36.6137 11.2531 41.7059 16.2893 41.7059 22.5017C41.7059 28.7141 36.6137 33.7504 30.3323 33.7504C24.0509 33.7504 18.9587 28.7141 18.9587 22.5017C18.9587 16.2893 24.0509 11.2531 30.3323 11.2531Z" fill="white"/>
<path d="M83.4095 29.5316C79.017 29.748 75.6274 33.4354 75.827 37.7805C76.0266 33.4354 72.6373 29.748 68.2445 29.5316C63.852 29.748 60.4625 33.4354 60.6621 37.7805C60.6621 44.2673 69.215 51.8675 73.4764 55.2496C74.8503 56.3376 76.8035 56.3376 78.1774 55.2496C82.4388 51.8751 90.9918 44.2673 90.9918 37.7805C91.1914 33.4354 87.802 29.7482 83.4095 29.5316Z" fill="white"/>
</g>
<defs>
<clipPath id="clip0_142_650">
<rect width="91" height="90" fill="white"/>
</clipPath>
</defs>
</svg>
