<svg width="90" height="90" viewBox="0 0 90 90" fill="none" xmlns="http://www.w3.org/2000/svg">
<g clip-path="url(#clip0_142_647)">
<path d="M69.375 7.5H67.5V5.625C67.5 4.13316 66.9074 2.70242 65.8525 1.64752C64.7976 0.592632 63.3668 0 61.875 0V0C60.3832 0 58.9524 0.592632 57.8975 1.64752C56.8426 2.70242 56.25 4.13316 56.25 5.625V7.5H33.75V5.625C33.75 4.13316 33.1574 2.70242 32.1025 1.64752C31.0476 0.592632 29.6168 0 28.125 0V0C26.6332 0 25.2024 0.592632 24.1475 1.64752C23.0926 2.70242 22.5 4.13316 22.5 5.625V7.5H20.625C15.1549 7.5 9.90886 9.67299 6.04092 13.5409C2.17298 17.4089 0 22.6549 0 28.125L0 69.375C0 74.8451 2.17298 80.0911 6.04092 83.9591C9.90886 87.827 15.1549 90 20.625 90H69.375C74.8451 90 80.0911 87.827 83.9591 83.9591C87.827 80.0911 90 74.8451 90 69.375V28.125C90 22.6549 87.827 17.4089 83.9591 13.5409C80.0911 9.67299 74.8451 7.5 69.375 7.5V7.5ZM69.375 78.75H20.625C18.1386 78.75 15.754 77.7623 13.9959 76.0041C12.2377 74.246 11.25 71.8614 11.25 69.375V37.5H78.75V69.375C78.75 71.8614 77.7623 74.246 76.0041 76.0041C74.246 77.7623 71.8614 78.75 69.375 78.75Z" fill="white"/>
</g>
<defs>
<clipPath id="clip0_142_647">
<rect width="90" height="90" fill="white"/>
</clipPath>
</defs>
</svg>
