<svg width="90" height="90" viewBox="0 0 90 90" fill="none" xmlns="http://www.w3.org/2000/svg">
<g clip-path="url(#clip0_142_662)">
<path d="M76.4584 16.005L66.4946 6.04127C64.5842 4.1197 62.3115 2.59629 59.8081 1.55929C57.3048 0.522284 54.6205 -0.00770482 51.9109 2.22558e-05H28.1246C22.6564 0.00597789 17.4138 2.18088 13.5471 6.04752C9.68049 9.91417 7.50559 15.1568 7.49963 20.625V69.375C7.50559 74.8433 9.68049 80.0859 13.5471 83.9525C17.4138 87.8192 22.6564 89.9941 28.1246 90H61.8746C67.3429 89.9941 72.5855 87.8192 76.4521 83.9525C80.3188 80.0859 82.4937 74.8433 82.4996 69.375V30.5888C82.5069 27.8792 81.9768 25.1951 80.9398 22.6918C79.9028 20.1885 78.3796 17.9157 76.4584 16.005V16.005ZM61.8746 78.75H28.1246C25.6382 78.75 23.2537 77.7623 21.4955 76.0042C19.7374 74.246 18.7496 71.8614 18.7496 69.375V20.625C18.7496 18.1386 19.7374 15.754 21.4955 13.9959C23.2537 12.2377 25.6382 11.25 28.1246 11.25H48.7496V26.25C48.7496 28.2391 49.5398 30.1468 50.9463 31.5533C52.3529 32.9598 54.2605 33.75 56.2496 33.75H71.2496V69.375C71.2496 71.8614 70.2619 74.246 68.5038 76.0042C66.7456 77.7623 64.361 78.75 61.8746 78.75ZM64.0721 42.9975C65.1001 44.0778 65.6569 45.5221 65.6204 47.0129C65.5838 48.5037 64.9568 49.9189 63.8771 50.9475L50.4296 63.75C47.9601 66.1685 44.6362 67.5151 41.1797 67.4976C37.7233 67.48 34.4132 66.0997 31.9684 63.6563L26.2496 58.575C25.6981 58.0826 25.2489 57.4863 24.9278 56.8203C24.6067 56.1542 24.4199 55.4314 24.3781 54.6932C24.3363 53.955 24.4404 53.2158 24.6843 52.5177C24.9282 51.8197 25.3072 51.1766 25.7996 50.625C26.2921 50.0735 26.8884 49.6243 27.5544 49.3032C28.2204 48.9821 28.9432 48.7953 29.6814 48.7535C30.4197 48.7117 31.1589 48.8158 31.8569 49.0597C32.5549 49.3036 33.1981 49.6826 33.7496 50.175L39.6971 55.4775C39.8897 55.7052 40.1267 55.8911 40.3937 56.024C40.6606 56.1568 40.9519 56.2337 41.2496 56.25C41.746 56.2499 42.222 56.053 42.5734 55.7025L56.1221 42.8025C57.2024 41.7746 58.6467 41.2177 60.1375 41.2543C61.6283 41.2908 63.0435 41.9179 64.0721 42.9975V42.9975Z" fill="white"/>
</g>
<defs>
<clipPath id="clip0_142_662">
<rect width="90" height="90" fill="white"/>
</clipPath>
</defs>
</svg>
