<svg width="111" height="111" viewBox="0 0 111 111" fill="none" xmlns="http://www.w3.org/2000/svg">
<path d="M92.5 78.6258V52.9666C92.5 50.4953 92.4979 49.259 92.1974 48.109C91.9311 47.0899 91.494 46.1255 90.9024 45.254C90.2348 44.2706 89.3067 43.4551 87.4468 41.8278L65.2468 22.4028C61.7938 19.3813 60.0672 17.8714 58.1241 17.2967C56.412 16.7904 54.5871 16.7904 52.8749 17.2967C50.9333 17.8709 49.2093 19.3794 45.7614 22.3963L23.5541 41.8278C21.6942 43.4551 20.7664 44.2706 20.0989 45.254C19.5073 46.1255 19.0668 47.0899 18.8005 48.109C18.5 49.259 18.5 50.4953 18.5 52.9666V78.6258C18.5 82.9358 18.5 85.0899 19.2041 86.7898C20.1429 89.0563 21.9425 90.8593 24.209 91.7981C25.9089 92.5022 28.0638 92.5022 32.3738 92.5022C36.6838 92.5022 38.8411 92.5022 40.541 91.7981C42.8075 90.8593 44.6066 89.0567 45.5454 86.7902C46.2495 85.0904 46.25 82.9354 46.25 78.6254V74.0004C46.25 68.8918 50.3914 64.7504 55.5 64.7504C60.6086 64.7504 64.75 68.8918 64.75 74.0004V78.6254C64.75 82.9354 64.75 85.0904 65.4541 86.7902C66.3929 89.0567 68.1925 90.8593 70.459 91.7981C72.1589 92.5022 74.3139 92.5022 78.6238 92.5022C82.9338 92.5022 85.0911 92.5022 86.791 91.7981C89.0575 90.8593 90.8566 89.0563 91.7954 86.7898C92.4995 85.0899 92.5 82.9358 92.5 78.6258Z" stroke="#7F80BF" stroke-width="10" stroke-linecap="round" stroke-linejoin="round"/>
</svg>
