<svg width="90" height="90" viewBox="0 0 90 90" fill="none" xmlns="http://www.w3.org/2000/svg">
<g clip-path="url(#clip0_142_646)">
<path d="M44.3703 90C43.2575 90.0005 42.1694 89.6708 41.2439 89.0528C40.3184 88.4348 39.5971 87.5561 39.1711 86.5279C38.7452 85.4998 38.6338 84.3684 38.851 83.2769C39.0683 82.1854 39.6044 81.1829 40.3916 80.3962L69.1616 51.63C70.0324 50.7594 70.7232 49.7258 71.1944 48.5882C71.6657 47.4506 71.9083 46.2313 71.9083 45C71.9083 43.7686 71.6657 42.5493 71.1944 41.4117C70.7232 40.2742 70.0324 39.2406 69.1616 38.37L40.3916 9.60372C39.8691 9.08122 39.4546 8.46093 39.1719 7.77826C38.8891 7.09558 38.7435 6.36389 38.7435 5.62497C38.7435 4.13265 39.3364 2.70145 40.3916 1.64622C41.4468 0.590991 42.878 -0.00183105 44.3703 -0.00183105C45.1093 -0.00183105 45.841 0.14371 46.5236 0.426484C47.2063 0.709257 47.8266 1.12372 48.3491 1.64622L77.1153 30.4162C80.983 34.2841 83.1559 39.53 83.1559 45C83.1559 50.4699 80.983 55.7158 77.1153 59.5837L48.3491 88.3537C47.8265 88.876 47.2062 89.2902 46.5235 89.5726C45.8408 89.8551 45.1092 90.0003 44.3703 90V90Z" fill="white"/>
<path d="M8.57717 89.9999C7.4646 89.9996 6.37709 89.6695 5.45217 89.0511C4.52725 88.4328 3.80646 87.5541 3.38097 86.5261C2.95549 85.4981 2.8444 84.367 3.06178 83.2759C3.27915 82.1847 3.81521 81.1826 4.60217 80.3961L38.6709 46.3274C38.8455 46.1532 38.9841 45.9463 39.0786 45.7185C39.1731 45.4907 39.2218 45.2465 39.2218 44.9999C39.2218 44.7532 39.1731 44.509 39.0786 44.2812C38.9841 44.0535 38.8455 43.8465 38.6709 43.6724L4.60217 9.60362C3.54694 8.54888 2.95392 7.11816 2.95357 5.62619C2.95322 4.13422 3.54556 2.70322 4.6003 1.64799C5.65503 0.592761 7.08575 -0.000258564 8.57772 -0.000610195C10.0697 -0.000961826 11.5007 0.591383 12.5559 1.64612L46.6284 35.7186C49.0826 38.1833 50.4604 41.5198 50.4604 44.998C50.4604 48.4762 49.0826 51.8127 46.6284 54.2774L12.5559 88.3536C12.0333 88.8759 11.413 89.2901 10.7303 89.5725C10.0476 89.855 9.31598 90.0002 8.57717 89.9999V89.9999Z" fill="white"/>
</g>
<defs>
<clipPath id="clip0_142_646">
<rect width="90" height="90" fill="white"/>
</clipPath>
</defs>
</svg>
