<svg width="91" height="90" viewBox="0 0 91 90" fill="none" xmlns="http://www.w3.org/2000/svg">
<g clip-path="url(#clip0_142_651)">
<path d="M37.3704 77.7848C31.1549 76.277 25.4933 73.0709 21.0322 68.5327C16.571 63.9944 13.4902 58.307 12.1413 52.1197C10.7925 45.9324 11.23 39.4947 13.404 33.5416C15.578 27.5885 19.4008 22.36 24.436 18.4531C29.4711 14.5462 35.5156 12.1184 41.8793 11.4469C48.2429 10.7754 54.6693 11.8872 60.4246 14.6554C66.1798 17.4237 71.032 21.7367 74.4271 27.1021C77.8222 32.4676 79.6233 38.6691 79.6248 44.9985C79.6248 46.4904 80.224 47.9211 81.2906 48.976C82.3572 50.0309 83.8039 50.6235 85.3123 50.6235C86.8207 50.6235 88.2673 50.0309 89.3339 48.976C90.4006 47.9211 90.9998 46.4904 90.9998 44.9985C90.9985 36.5586 88.5973 28.2892 84.0706 21.1346C79.5438 13.9801 73.0739 8.22874 65.3997 4.53746C57.7255 0.846186 49.1564 -0.636239 40.6709 0.259479C32.1854 1.1552 24.1257 4.39295 17.4121 9.60299C10.6985 14.813 5.60169 21.7853 2.70372 29.7237C-0.194256 37.662 -0.776568 46.2463 1.02328 54.4964C2.82313 62.7464 6.93258 70.3295 12.8823 76.3798C18.8321 82.4301 26.3823 86.7036 34.6708 88.7123C35.1123 88.8205 35.5657 88.8747 36.0206 88.8735C37.4106 88.8721 38.7519 88.3673 39.7912 87.4544C40.8305 86.5416 41.4959 85.2839 41.6616 83.919C41.8272 82.5541 41.4818 81.1764 40.6905 80.0462C39.8992 78.916 38.7168 78.1116 37.3666 77.7848H37.3704Z" fill="white"/>
<path d="M89.5633 59.7739C88.4967 58.7194 87.0503 58.127 85.5422 58.127C84.0341 58.127 82.5877 58.7194 81.5211 59.7739L63.378 77.7064L55.2904 69.2314C54.7731 68.6985 54.1547 68.2716 53.4705 67.9751C52.7864 67.6786 52.0499 67.5183 51.3031 67.5033C50.5563 67.4884 49.8138 67.619 49.1181 67.8879C48.4224 68.1567 47.787 68.5584 47.2483 69.0701C46.7097 69.582 46.2784 70.1938 45.9789 70.8706C45.6795 71.5473 45.5177 72.2758 45.5029 73.0144C45.4882 73.753 45.6206 74.4872 45.8928 75.1751C46.1649 75.8631 46.5714 76.4913 47.089 77.0239L56.8753 87.2276C57.6934 88.0845 58.6762 88.7714 59.7661 89.2479C60.856 89.7244 62.0311 89.981 63.2226 90.0026H63.3628C65.7235 89.9949 67.986 89.068 69.6608 87.4226L89.5822 67.7276C90.646 66.6703 91.2415 65.2384 91.238 63.7469C91.2344 62.2553 90.632 60.8262 89.5633 59.7739V59.7739Z" fill="white"/>
<path d="M39.8124 28.125V41.4562L30.7124 47.0812C30.0791 47.4733 29.5302 47.985 29.0969 48.587C28.6637 49.189 28.3546 49.8695 28.1873 50.5897C28.0201 51.3098 27.9979 52.0555 28.1221 52.7842C28.2464 53.5128 28.5145 54.2101 28.9113 54.8362C29.3078 55.4625 29.8251 56.0054 30.4338 56.4339C31.0425 56.8624 31.7306 57.1681 32.4588 57.3335C33.1869 57.4989 33.9409 57.5208 34.6777 57.398C35.4144 57.2751 36.1194 57.0099 36.7525 56.6174L47.6308 49.8675C48.7222 49.191 49.6215 48.2508 50.2437 47.1354C50.866 46.0201 51.1907 44.7663 51.1874 43.4925V28.125C51.1874 26.6332 50.5881 25.2024 49.5215 24.1475C48.4549 23.0926 47.0083 22.5 45.4999 22.5C43.9914 22.5 42.5448 23.0926 41.4782 24.1475C40.4116 25.2024 39.8124 26.6332 39.8124 28.125V28.125Z" fill="white"/>
</g>
<defs>
<clipPath id="clip0_142_651">
<rect width="91" height="90" fill="white"/>
</clipPath>
</defs>
</svg>
