<svg width="94" height="94" viewBox="0 0 94 94" fill="none" xmlns="http://www.w3.org/2000/svg">
<path d="M66.5833 82.25C66.5833 71.4344 57.8156 62.6667 47 62.6667C36.1844 62.6667 27.4167 71.4344 27.4167 82.25M66.5833 82.25H69.7288C74.1073 82.25 76.2966 82.25 77.9706 81.3971C79.4446 80.6461 80.6461 79.4446 81.3971 77.9706C82.25 76.2966 82.25 74.1073 82.25 69.7288V24.2712C82.25 19.8927 82.25 17.7002 81.3971 16.0262C80.6461 14.5523 79.4446 13.3548 77.9706 12.6038C76.295 11.75 74.1045 11.75 69.7174 11.75H24.2841C19.897 11.75 17.7018 11.75 16.0262 12.6038C14.5523 13.3548 13.3548 14.5523 12.6038 16.0262C11.75 17.7018 11.75 19.897 11.75 24.2841V69.7174C11.75 74.1045 11.75 76.295 12.6038 77.9706C13.3548 79.4446 14.5523 80.6461 16.0262 81.3971C17.7002 82.25 19.8927 82.25 24.2712 82.25H27.4167M66.5833 82.25H27.4167M47 50.9167C40.5107 50.9167 35.25 45.656 35.25 39.1667C35.25 32.6773 40.5107 27.4167 47 27.4167C53.4893 27.4167 58.75 32.6773 58.75 39.1667C58.75 45.656 53.4893 50.9167 47 50.9167Z" stroke="#7F80BF" stroke-width="10" stroke-linecap="round" stroke-linejoin="round"/>
</svg>
